<svg xmlns="http://www.w3.org/2000/svg"
 xmlns:xlink="http://www.w3.org/1999/xlink"
 width="64px" height="61px"  viewBox="0 0 64 61">
<path fill-rule="evenodd"  fill="#00a2ff"
 d="M62.585938,29.656006 C62.585938,30.31311 62.491333,30.921753 62.304565,31.48413 C62.1156,32.046753 61.834473,32.56299 61.460938,33.031128 C61.085205,33.501343 60.66333,33.874756 60.195312,34.156128 C59.725098,34.437378 59.210938,34.672363 58.648438,34.859253 C58.929565,35.329468 59.162598,35.821777 59.35144,36.335815 C59.53833,36.852295 59.632812,37.438843 59.632812,38.093628 C59.632812,38.656128 59.53833,39.218506 59.35144,39.781128 C59.162598,40.34375 58.929565,40.859985 58.648438,41.32788 C58.272705,41.703613 57.850708,42.055176 57.38269,42.38257 C56.912476,42.71228 56.444458,42.96936 55.976562,43.15625 C56.25769,43.626465 56.4906,44.14038 56.679688,44.703003 C56.866333,45.265625 56.960938,45.828003 56.960938,46.390503 C56.960938,47.047363 56.866333,47.634155 56.679688,48.148438 C56.4906,48.664673 56.25769,49.15674 55.976562,49.624878 C55.60083,50.095093 55.178955,50.492676 54.710815,50.82007 C54.240723,51.14978 53.72644,51.36084 53.164062,51.453003 C53.537476,51.923218 53.818848,52.415527 54.007812,52.929443 C54.19458,53.446045 54.28894,54.032593 54.28894,54.687256 C54.28894,55.34436 54.148438,56.001343 53.867065,56.656128 C53.585938,57.313232 53.210205,57.87561 52.742065,58.34375 C52.179688,58.813843 51.568726,59.187378 50.914062,59.468628 C50.25708,59.75 49.553955,59.890503 48.804565,59.890503 C48.804565,59.890503 30.242065,59.890503 30.242065,59.890503 C29.585205,59.890503 28.835938,59.79834 27.992188,59.60913 C27.148315,59.422607 26.256226,59.141235 25.320312,58.765503 C24.38208,58.484253 23.443726,58.13269 22.507812,57.710815 C21.56958,57.289062 20.631348,56.891113 19.69519,56.51538 C18.57019,56.047485 17.467163,55.57959 16.390503,55.10913 C15.311768,54.641235 14.53833,54.406006 14.07019,54.406006 C14.07019,54.406006 1.2734375,54.406006 1.2734375,54.406006 C1.2734375,54.406006 1.2734375,26.984375 1.2734375,26.984375 C1.2734375,26.984375 2.3984375,26.843506 2.3984375,26.843506 C7.7421875,26.843506 11.3984375,26.843506 13.3671875,26.843506 C14.210815,26.843506 14.984253,26.751343 15.6875,26.562256 C16.390503,26.37561 17.115723,25.999878 17.867188,25.437256 C18.710815,24.96936 19.671143,24.312378 20.75,23.46875 C21.82666,22.624756 23.116455,21.594238 24.617065,20.374878 C27.521973,17.93811 29.233643,14.890381 29.75,11.234253 C30.26416,7.578125 30.523438,5.46875 30.523438,4.906128 C30.523438,4.343506 30.66394,3.8052979 30.945312,3.2888184 C31.22644,2.7747803 31.600098,2.374878 32.070312,2.093628 C32.53833,1.7200928 33.030396,1.4606934 33.546753,1.3201904 C34.060913,1.1794434 34.553223,1.1091309 35.023438,1.1091309 C35.772583,1.1091309 36.521973,1.2036133 37.273315,1.3905029 C38.022705,1.5793457 38.725708,2.0014648 39.382812,2.65625 C40.037598,3.3129883 40.553955,4.1810303 40.929688,5.2576904 C41.303223,6.336548 41.492188,7.766968 41.492188,9.546753 C41.492188,11.141846 41.373535,12.664673 41.140625,14.117065 C40.905518,15.571655 40.600098,16.953735 40.22644,18.265503 C39.945312,19.579346 39.593628,20.77478 39.171875,21.85144 C38.75,22.930298 38.398438,23.844482 38.117188,24.593628 C38.117188,24.593628 57.242065,24.593628 57.242065,24.593628 C58.085938,24.593628 58.810913,24.71228 59.421875,24.94519 C60.030518,25.180176 60.617188,25.531738 61.179688,25.999878 C61.647705,26.470093 61.999268,27.008545 62.234375,27.616943 C62.467285,28.227905 62.585938,28.90686 62.585938,29.656006 C62.585938,29.656006 62.585938,29.656006 62.585938,29.656006 C62.585938,29.656006 62.585938,29.656006 62.585938,29.656006 ZM57.242065,32.609375 C57.710205,32.609375 58.13208,32.53882 58.507812,32.398315 C58.881348,32.257812 59.162598,32.046753 59.35144,31.76538 C59.632812,31.48413 59.865723,31.180908 60.054688,30.851562 C60.241455,30.52417 60.335815,30.12622 60.335815,29.656006 C60.335815,28.90686 60.054688,28.249756 59.492188,27.6875 C58.929565,27.124878 58.178223,26.843506 57.242065,26.843506 C57.242065,26.843506 48.804565,26.843506 48.804565,26.843506 C48.804565,26.937988 48.804565,26.937988 48.804565,26.843506 C48.804565,26.843506 34.32019,26.843506 34.32019,26.843506 C34.32019,26.843506 35.16394,25.156006 35.16394,25.156006 C37.787598,18.687378 39.101562,13.484131 39.101562,9.546753 C39.101562,6.452881 38.585205,4.649048 37.554688,4.1326904 C36.521973,3.6185303 35.678223,3.359375 35.023438,3.359375 C34.742065,3.359375 34.32019,3.499878 33.75769,3.781128 C33.19519,4.0625 32.914062,4.4382324 32.914062,4.906128 C32.914062,5.46875 32.8656,6.4068604 32.773315,7.718628 C32.678955,9.032715 32.397583,10.531128 31.929688,12.218628 C31.45935,13.90625 30.780518,15.641846 29.890503,17.421875 C28.998535,19.203613 27.756958,20.75061 26.16394,22.0625 C24.568848,23.376343 23.23291,24.47705 22.15625,25.367065 C21.07727,26.259033 20.068848,26.984375 19.13269,27.54663 C18.194458,28.109253 17.256226,28.531128 16.320312,28.812378 C15.38208,29.09375 14.397705,29.234253 13.3671875,29.234253 C12.615723,29.234253 11.796143,29.234253 10.906128,29.234253 C10.014038,29.234253 9.100098,29.234253 8.16394,29.234253 C7.3203125,29.234253 6.498413,29.234253 5.703125,29.234253 C4.9053955,29.234253 4.2265625,29.234253 3.6639404,29.234253 C3.6639404,29.234253 3.6639404,52.015625 3.6639404,52.015625 C3.6639404,52.015625 14.07019,52.015625 14.07019,52.015625 C14.724976,52.015625 15.593018,52.22632 16.671875,52.648193 C17.748535,53.070312 19.084473,53.610718 20.679565,54.265503 C21.428955,54.641235 22.248535,55.03882 23.140625,55.460693 C24.030396,55.882812 24.898438,56.234375 25.742065,56.51538 C26.678223,56.79663 27.521973,57.05603 28.273315,57.289062 C29.022705,57.524048 29.679565,57.640625 30.242065,57.640625 C30.242065,57.640625 45.85144,57.640625 45.85144,57.640625 C45.85144,57.640625 48.804565,57.640625 48.804565,57.640625 C49.272583,57.640625 49.69458,57.548218 50.070312,57.359253 C50.443726,57.172485 50.773315,56.9375 51.054688,56.656128 C51.335815,56.46936 51.546753,56.18799 51.6875,55.812256 C51.828125,55.438843 51.898315,55.06299 51.898315,54.687256 C51.898315,54.21936 51.828125,53.821777 51.6875,53.492065 C51.546753,53.164673 51.335815,52.859253 51.054688,52.57788 C50.773315,52.296875 50.443726,52.085815 50.070312,51.945312 C49.69458,51.804565 49.272583,51.734253 48.804565,51.734253 C48.804565,51.734253 48.523438,51.734253 48.523438,51.734253 C48.523438,51.734253 48.523438,49.343628 48.523438,49.343628 C48.523438,49.343628 51.75769,49.343628 51.75769,49.343628 C52.131348,49.343628 52.50708,49.273315 52.88269,49.132812 C53.256348,48.992065 53.585938,48.78125 53.867065,48.5 C54.053955,48.218628 54.240723,47.891235 54.429688,47.515503 C54.616455,47.14209 54.710815,46.766357 54.710815,46.390503 C54.710815,46.016846 54.616455,45.641113 54.429688,45.265625 C54.240723,44.891846 54.053955,44.5625 53.867065,44.281128 C53.585938,44.09436 53.256348,43.90747 52.88269,43.718628 C52.50708,43.531982 52.131348,43.437256 51.75769,43.437256 C51.75769,43.437256 50.773315,43.437256 50.773315,43.437256 C50.773315,43.437256 50.773315,41.046875 50.773315,41.046875 C50.773315,41.046875 54.28894,41.046875 54.28894,41.046875 C54.662598,41.046875 55.03833,40.97632 55.41394,40.835815 C55.787598,40.695312 56.117188,40.484253 56.398315,40.203003 C56.679688,39.92163 56.912476,39.59424 57.101562,39.218506 C57.28833,38.845093 57.38269,38.46936 57.38269,38.093628 C57.38269,37.62561 57.28833,37.203857 57.101562,36.828125 C56.912476,36.454346 56.679688,36.17334 56.398315,35.98413 C56.117188,35.70288 55.787598,35.470215 55.41394,35.281006 C55.03833,35.094482 54.662598,34.999756 54.28894,34.999756 C54.28894,34.999756 53.164062,34.999756 53.164062,34.999756 C53.164062,34.999756 53.164062,32.609375 53.164062,32.609375 C53.164062,32.609375 57.242065,32.609375 57.242065,32.609375 C57.242065,32.609375 57.242065,32.609375 57.242065,32.609375 C57.242065,32.609375 57.242065,32.609375 57.242065,32.609375 C57.242065,32.609375 57.242065,32.609375 57.242065,32.609375 C57.242065,32.609375 57.242065,32.609375 57.242065,32.609375 Z"/>
</svg>